<svg xmlns="http://www.w3.org/2000/svg" xmlns:xlink="http://www.w3.org/1999/xlink" width="440" height="180" viewBox="0 0 440 180">
  <defs>
    <clipPath id="clip-path">
      <rect id="Rectangle_16908" data-name="Rectangle 16908" width="440" height="180" transform="translate(-20461 -8190)" fill="#fff"/>
    </clipPath>
  </defs>
  <g id="Mask_Group_69" data-name="Mask Group 69" transform="translate(20461 8190)" clip-path="url(#clip-path)">
    <path id="Path_24653" data-name="Path 24653" d="M77.2-29.6H6.8V-50l65.6-90h31.8v87.8h17.6v22.6H104.2V0h-27Zm1.2-22.6v-59l-41.8,59ZM137.6-70a143.425,143.425,0,0,1,2.7-28.9,66.163,66.163,0,0,1,8.8-22.6,40.975,40.975,0,0,1,16.5-14.7q10.4-5.2,25.6-5.2,15.6,0,25.9,5.2a41.134,41.134,0,0,1,16.4,14.7,64.76,64.76,0,0,1,8.7,22.6A148.771,148.771,0,0,1,244.8-70a151.474,151.474,0,0,1-2.6,29.2,63.751,63.751,0,0,1-8.7,22.6A40.66,40.66,0,0,1,217.1-3.7q-10.3,5.1-25.9,5.1-15.2,0-25.6-5.1a40.51,40.51,0,0,1-16.5-14.5,65.1,65.1,0,0,1-8.8-22.6A146.028,146.028,0,0,1,137.6-70Zm79.8,0q0-9.6-.7-18.2a56.945,56.945,0,0,0-3.3-15.5,23.422,23.422,0,0,0-7.8-10.8q-5.2-3.9-14.4-3.9-9,0-14.2,3.9a23.422,23.422,0,0,0-7.8,10.8,56.946,56.946,0,0,0-3.3,15.5q-.7,8.6-.7,18.2,0,10,.7,18.8a53.614,53.614,0,0,0,3.3,15.4A22.929,22.929,0,0,0,177-25.4q5.2,3.8,14.2,3.8,9.2,0,14.4-3.8a22.929,22.929,0,0,0,7.8-10.4,53.613,53.613,0,0,0,3.3-15.4Q217.4-60,217.4-70Zm45.4-30.4q.6-13.4,6.9-22.5a39.5,39.5,0,0,1,17-13.8q10.7-4.7,24.7-4.7,14.6,0,24.8,5.4a38.193,38.193,0,0,1,15.5,14.4,38.306,38.306,0,0,1,5.3,19.8,30.365,30.365,0,0,1-3.2,14.3,29.305,29.305,0,0,1-8.4,10A43.4,43.4,0,0,1,335-71.6v.8a39.633,39.633,0,0,1,12.9,6.4,29.071,29.071,0,0,1,8.6,10.6,35.561,35.561,0,0,1,3.1,15.6,38.568,38.568,0,0,1-5.5,20.7,36.84,36.84,0,0,1-16,13.9q-10.5,5-25.7,5-15,0-26.4-4.4a37.538,37.538,0,0,1-18-14.1q-6.6-9.7-7.2-25.7h26.4q.4,10.8,6.2,16t18.4,5.2a27.411,27.411,0,0,0,11.8-2.2,14.441,14.441,0,0,0,6.8-6.4,21.753,21.753,0,0,0,2.2-10.2q0-11.6-7.5-15.4t-23.5-3.8H296V-81.2h5.8a72.93,72.93,0,0,0,14.8-1.7,19.294,19.294,0,0,0,9.9-5.2q3.5-3.7,3.5-10.3,0-8.6-4.8-14.3t-14.6-5.7q-7.2,0-11.7,2.6a18.8,18.8,0,0,0-6.9,6.6,20.114,20.114,0,0,0-2.8,8.8Z" transform="translate(-20423.801 -8029.6)" fill="#e3e7dd"/>
  </g>
</svg>
