<svg xmlns="http://www.w3.org/2000/svg" xmlns:xlink="http://www.w3.org/1999/xlink" width="440" height="180" viewBox="0 0 440 180">
  <defs>
    <clipPath id="clip-path">
      <rect id="Rectangle_16907" data-name="Rectangle 16907" width="440" height="180" transform="translate(504 254)" fill="#fff"/>
    </clipPath>
  </defs>
  <g id="Mask_Group_68" data-name="Mask Group 68" transform="translate(-504 -254)" clip-path="url(#clip-path)">
    <path id="Path_24654" data-name="Path 24654" d="M77.2-29.6H6.8V-50l65.6-90h31.8v87.8h17.6v22.6H104.2V0h-27Zm1.2-22.6v-59l-41.8,59ZM137.6-70a143.425,143.425,0,0,1,2.7-28.9,66.163,66.163,0,0,1,8.8-22.6,40.975,40.975,0,0,1,16.5-14.7q10.4-5.2,25.6-5.2,15.6,0,25.9,5.2a41.134,41.134,0,0,1,16.4,14.7,64.76,64.76,0,0,1,8.7,22.6A148.771,148.771,0,0,1,244.8-70a151.474,151.474,0,0,1-2.6,29.2,63.751,63.751,0,0,1-8.7,22.6A40.66,40.66,0,0,1,217.1-3.7q-10.3,5.1-25.9,5.1-15.2,0-25.6-5.1a40.51,40.51,0,0,1-16.5-14.5,65.1,65.1,0,0,1-8.8-22.6A146.028,146.028,0,0,1,137.6-70Zm79.8,0q0-9.6-.7-18.2a56.945,56.945,0,0,0-3.3-15.5,23.422,23.422,0,0,0-7.8-10.8q-5.2-3.9-14.4-3.9-9,0-14.2,3.9a23.422,23.422,0,0,0-7.8,10.8,56.946,56.946,0,0,0-3.3,15.5q-.7,8.6-.7,18.2,0,10,.7,18.8a53.614,53.614,0,0,0,3.3,15.4A22.929,22.929,0,0,0,177-25.4q5.2,3.8,14.2,3.8,9.2,0,14.4-3.8a22.929,22.929,0,0,0,7.8-10.4,53.613,53.613,0,0,0,3.3-15.4Q217.4-60,217.4-70ZM329-29.6H258.6V-50l65.6-90H356v87.8h17.6v22.6H356V0H329Zm1.2-22.6v-59l-41.8,59Z" transform="translate(529.801 414.4)" fill="#e3e7dd"/>
  </g>
</svg>
