<svg xmlns="http://www.w3.org/2000/svg" xmlns:xlink="http://www.w3.org/1999/xlink" width="98" height="91" viewBox="0 0 98 91">
  <defs>
    <clipPath id="clip-path">
      <rect id="Rectangle_16740" data-name="Rectangle 16740" width="98" height="91" transform="translate(-0.378 0.244)" fill="none"/>
    </clipPath>
  </defs>
  <g id="stage-completion-badge" transform="translate(0.378 -0.244)">
    <g id="Group_24719" data-name="Group 24719" transform="translate(0 0)" clip-path="url(#clip-path)">
      <path id="Path_22080" data-name="Path 22080" d="M21.782,236.249a108.419,108.419,0,0,0-14.411,5.1q-.319-4.949-.361-9.959Q3.628,227.717,0,224.206a126.932,126.932,0,0,1,16.868-5.97l4.914,18.013" transform="translate(-0.753 -148.834)" fill="#a3a436"/>
      <path id="Path_22081" data-name="Path 22081" d="M253.7,236.249a108.422,108.422,0,0,1,14.411,5.1q.318-4.949.361-9.959,3.383-3.673,7.011-7.184a126.926,126.926,0,0,0-16.869-5.97L253.7,236.249" transform="translate(-175.063 -148.834)" fill="#a3a436"/>
      <path id="Path_22082" data-name="Path 22082" d="M43.324,248.591q4.322,3.482,8.225,7.253l-2.457-9.006q-2.9.8-5.767,1.754" transform="translate(-30.519 -168.428)" fill="#b2b357"/>
      <path id="Path_22083" data-name="Path 22083" d="M261.929,248.591q-4.322,3.482-8.225,7.253l2.457-9.006q2.9.8,5.768,1.754" transform="translate(-175.063 -168.428)" fill="#b2b357"/>
      <path id="Path_22084" data-name="Path 22084" d="M110.929,42.7A42.431,42.431,0,1,1,68.5,0a42.564,42.564,0,0,1,42.43,42.7" transform="translate(-18.664 0.678)" fill="#314d25"/>
      <path id="Path_22085" data-name="Path 22085" d="M89.347,47.825l-.411.333-2.2-2.743.59-.478L89.29,46.6l-1.211-2.269.566-.46,2.2,2.743-.411.333L89.05,45.221l1.025,2.014-.33.268-1.776-1.4Z" transform="translate(-60.347 -29.375)" fill="#e3e7dd"/>
      <path id="Path_22086" data-name="Path 22086" d="M99.711,39.154a.293.293,0,0,0-.189-.133.288.288,0,0,0-.227.042.306.306,0,0,0-.094.42l1.031,1.625a.286.286,0,0,0,.191.133.3.3,0,0,0,.32-.461Zm-.687-.545a.8.8,0,0,1,.632-.113.812.812,0,0,1,.525.37l1.029,1.62a.846.846,0,0,1-.255,1.164.8.8,0,0,1-.632.112.813.813,0,0,1-.523-.37l-1.028-1.62a.844.844,0,0,1,.253-1.163" transform="translate(-68.523 -25.68)" fill="#e3e7dd"/>
      <path id="Path_22087" data-name="Path 22087" d="M109.653,35.8a.827.827,0,0,1-1.121-.366l-1.226-2.429.461-.235,1.222,2.423a.288.288,0,0,0,.176.151.3.3,0,0,0,.364-.427L108.307,32.5l.49-.25,1.226,2.428a.807.807,0,0,1,.049.643.818.818,0,0,1-.419.485" transform="translate(-74.479 -21.414)" fill="#e3e7dd"/>
      <path id="Path_22088" data-name="Path 22088" d="M117.959,28.185l1.5,1.953-.851-2.208.492-.192,1.267,3.286-.529.206-1.487-1.84.811,2.1-.492.192L117.406,28.4Z" transform="translate(-81.418 -18.325)" fill="#e3e7dd"/>
      <path id="Path_22089" data-name="Path 22089" d="M128.906,25.335l-.538.16-.151-.512,1.581-.471.15.512-.536.16.844,2.864-.506.151Z" transform="translate(-88.846 -16.115)" fill="#e3e7dd"/>
      <path id="Path_22090" data-name="Path 22090" d="M139.676,23.652l.067,1.4.384-.074Zm.083,1.924.026.819-.541.1-.072-3.571.713-.137,1.233,3.347-.544.105-.273-.772Z" transform="translate(-96.373 -14.936)" fill="#e3e7dd"/>
      <rect id="Rectangle_16739" data-name="Rectangle 16739" width="0.525" height="3.52" transform="translate(45.853 7.51) rotate(-6.059)" fill="#e3e7dd"/>
      <path id="Path_22091" data-name="Path 22091" d="M157.015,20.955l.75,2.353-.05-2.368.528-.012.074,3.524-.566.012-.773-2.24.047,2.256-.527.011-.075-3.524Z" transform="translate(-108.224 -13.66)" fill="#e3e7dd"/>
      <path id="Path_22092" data-name="Path 22092" d="M172.858,24.516a.83.83,0,0,1-.924.737,1.061,1.061,0,0,1-.319-.08l.131-.482a.921.921,0,0,0,.151.035.977.977,0,0,0,.111.009.331.331,0,0,0,.226-.067.28.28,0,0,0,.111-.2l.31-2.711.513.059Z" transform="translate(-118.662 -14.227)" fill="#e3e7dd"/>
      <path id="Path_22093" data-name="Path 22093" d="M181.981,24.048a.293.293,0,0,0-.043-.229.29.29,0,0,0-.192-.13.3.3,0,0,0-.228.043.288.288,0,0,0-.13.193L181,25.811a.29.29,0,0,0,.044.229.294.294,0,0,0,.193.131.287.287,0,0,0,.226-.043.292.292,0,0,0,.13-.193Zm-.114-.874a.808.808,0,0,1,.532.364.82.82,0,0,1,.118.634l-.388,1.882a.837.837,0,0,1-.99.655.8.8,0,0,1-.53-.364.824.824,0,0,1-.117-.633l.389-1.882a.811.811,0,0,1,.361-.534.8.8,0,0,1,.627-.12" transform="translate(-124.748 -15.185)" fill="#e3e7dd"/>
      <path id="Path_22094" data-name="Path 22094" d="M191.075,29.017a.835.835,0,0,1-.549-1.05l.807-2.6.493.156-.8,2.594a.3.3,0,0,0,.2.381.3.3,0,0,0,.378-.2L192.4,25.7l.525.165-.807,2.6a.8.8,0,0,1-.412.5.809.809,0,0,1-.636.053" transform="translate(-131.628 -16.701)" fill="#e3e7dd"/>
      <path id="Path_22095" data-name="Path 22095" d="M201.533,30.213a.27.27,0,0,0-.16-.4l-.293-.126-.438,1.037.293.125a.287.287,0,0,0,.232,0,.3.3,0,0,0,.165-.165Zm.038-.906a.806.806,0,0,1,.5.48.888.888,0,0,1-.064.62l-.2.471a.824.824,0,0,1-.505.472l-.238,1.568-.525-.224.221-1.347-.044-.019-.28-.12-.515,1.22-.487-.207L200.8,28.98Z" transform="translate(-137.779 -19.176)" fill="#e3e7dd"/>
      <path id="Path_22096" data-name="Path 22096" d="M211.118,34.029l-.519,2.416,1.132-2.076.464.255-1.686,3.089-.5-.274.444-2.33-1.08,1.978-.463-.256,1.687-3.089Z" transform="translate(-144.289 -22.438)" fill="#e3e7dd"/>
      <path id="Path_22097" data-name="Path 22097" d="M218.073,42.545l1.975-2.91,1.241.853-.3.441-.8-.553-.539.794.588.4-.3.441-.588-.4-.539.794.805.553-.3.441Z" transform="translate(-150.582 -26.475)" fill="#e3e7dd"/>
      <path id="Path_22098" data-name="Path 22098" d="M228.276,47.668l.761-2.029.446.375-.5,1.223,1.1-.721.449.376-1.849,1.117-.939,1.133-.406-.34Z" transform="translate(-156.947 -30.588)" fill="#e3e7dd"/>
      <path id="Path_22099" data-name="Path 22099" d="M42.545,107.757c-.778-.65,1.513-2.538,2.217-2.82.593-.237,1.245.035,1.791-.328s.63-1.13.987-1.65c.549-.8,1.4-1.377,1.946-2.182.4-.587.517-1.339,1.068-1.813.44-.378,1.016-.276,1.471-.648,1.176-.962,1.353-2.776,2.317-3.94.877-1.057,2.087-1.812,2.565-3.207.46-1.341.139-4.348,1.131-5.4.238-.254.776-.237,1.239-.221a2.717,2.717,0,0,0,.64-.02c.716-.184,1.121-.768,2-.62,1.169.2,2.963,2.221,3.957,2.974,1.442,1.093,1.63.945,3.61.578,1.59-.294,1.729-.739,2.835-1.831,1.034-1.02,2.308-1.762,3.315-2.893a8.577,8.577,0,0,1,2.421-2.35c1.023-.585,2-1.147,3.013-1.708a11.116,11.116,0,0,0,2.281-1.163c.8-.785,1.028-2.127,1.631-3.023.377-.561.992-1,1.415-1.541a5.317,5.317,0,0,0,1.279-2.441A23.4,23.4,0,0,1,89.7,67.3c1.25.967,3.328,1.292,4.179,2.8.281.5.133,1.273.413,1.752.249.426.917.7,1.241,1.082a11.7,11.7,0,0,1,1.878,4.557,22.919,22.919,0,0,0,7.4,10.786c1.447,1.189,1.613,2.01,3.423.783,1.464-.992,1.782-1.594,2.818.037,2.575,4.052,5.619,8.673,5.394,13.841a13.4,13.4,0,0,1-.336,2.7c-.39.775-2.353.46-3.346.738-2.393.673-4.624,1.712-7.062,2.25-4.693,1.036-9.474,1.543-14.179,2.5-8.018,1.635-15.932,2.027-23.871-.267-3.732-1.078-7.394-2.569-11.228-3.242a14.454,14.454,0,0,0-5.077.314,16.55,16.55,0,0,1-4.632.388,9.4,9.4,0,0,1-3.866-1.013c-.355-.033-.2.286-.307.442" transform="translate(-29.875 -45.43)" fill="#e3e7dd"/>
      <path id="Path_22100" data-name="Path 22100" d="M156.206,111.1a21.551,21.551,0,0,0,5-.468,15.746,15.746,0,0,1-4.438-.767c-1.874-.608-4.186-1.025-5.87-1.959a24.394,24.394,0,0,1-2.973-2.25c-1.213-.944-2.883-1.766-3.828-2.937,2.845-.151,11.3-3.278,7.967-7.045-.683-.772-3.043-2.512-2.952-3.562.082-.95,1.819-1.5,2.136-2.23.576-1.337-.69-1.883-1.3-2.8-.821-1.235-.2-1.627.948-2.451a6.033,6.033,0,0,1-1.527-.794,16.819,16.819,0,0,1,2.568-1.172,3.655,3.655,0,0,0-2.589-.418,4.011,4.011,0,0,1-2.1-.173c.837-.687,1.793-1.412,2.663-2.143a9.462,9.462,0,0,0,1.473-1.234c.257-.345.021-.856.55-1.22a7.548,7.548,0,0,1-.771-.837c.338.009.648-.217.982-.239-.165-1.31-1.762-2.319-2.138-3.645a13.175,13.175,0,0,0-1.228,2.705,6,6,0,0,1-1.391,2.675l-.024.031a7.763,7.763,0,0,1-.712.759,5.12,5.12,0,0,0-.669.736,6.761,6.761,0,0,0-.548,1.127,5.921,5.921,0,0,1-1.183,2.016,5.288,5.288,0,0,1-1.709.957,7.835,7.835,0,0,0-.74.332c-.862.477-1.689.95-2.564,1.451l-.44.252a4.991,4.991,0,0,0-1.582,1.431c-.183.223-.391.476-.646.762a14.7,14.7,0,0,1-1.957,1.747,16.36,16.36,0,0,0-1.392,1.182c-.192.19-.354.359-.5.511a4.078,4.078,0,0,1-2.484,1.479c.13.032.251.067.359.1,1.307.455,1.822,1.868,3.437,1.805-.011,1.4-.98,1.591-.035,2.625A11.932,11.932,0,0,0,136.553,99c.3,2.824.736,5.709.965,8.514.163,2.006-1.554,3.967.787,5.243,1.479.806,4.009.75,5.656,1.1,1.833.389,4.852,1.161,6.457-.152-.281-.621-1.013-.936-1.554-1.277a4.367,4.367,0,0,1,1.478-.794c-.13-.11-.29-.4-.493-.522,1.735.709,4.492.052,6.356-.018" transform="translate(-90.234 -49.167)" fill="#98a692"/>
      <path id="Path_22101" data-name="Path 22101" d="M93.123,127.7a3.135,3.135,0,0,0-.435,1.38c1.026-.079.936-.762,1.289-1.4l-.152,0c-.16-.006-.325-.012-.471-.006a1.187,1.187,0,0,0-.232.026" transform="translate(-64.435 -86.789)" fill="#98a692"/>
      <path id="Path_22102" data-name="Path 22102" d="M71.937,149.828c1.7-1.627-1.44-1.88-2.7-2.41.352-.7,1.157-.69,1.926-.677a5.951,5.951,0,0,0,.8-.02,6.689,6.689,0,0,0,3.182-1.329c-.571-.47-1.467-.025-2.145-.022a23.024,23.024,0,0,1-3.41-.3,30.577,30.577,0,0,1-6.388-2.273,5.647,5.647,0,0,1,1.29.089,2.748,2.748,0,0,0,2.223-.263c-.947-.523-1.869-1.276-2.856-1.839a16.7,16.7,0,0,0-4.2-1.434,6.825,6.825,0,0,0,2.031-1.11c.664-.727.5-1.563,1.042-2.273-.4-.2-.625-.614-.905-.83.429.049.776-.2,1.148-.248-.46-.98-1.755-.844-2.282-1.777-.045.377-.078.768-.107,1.13a9.993,9.993,0,0,1-.342,2.265,6.638,6.638,0,0,1-1.857,2.567,11.973,11.973,0,0,0-.845.885,6.517,6.517,0,0,0-.849,1.589,5.963,5.963,0,0,1-1.575,2.455,2.523,2.523,0,0,1-1.024.469,1.148,1.148,0,0,0-.433.167,2.3,2.3,0,0,0-.49.813,5.466,5.466,0,0,1-.441.844,8.01,8.01,0,0,1-1.082,1.225,7,7,0,0,0-.868.964,2.988,2.988,0,0,0-.244.507,2.729,2.729,0,0,1-.951,1.349,2.2,2.2,0,0,1-1.171.337c-.074,0-.148,0-.223.006l-.189,0a1.058,1.058,0,0,0-.35.055,5.852,5.852,0,0,0-1.47,1.163,9.78,9.78,0,0,0,3.218.73,9.054,9.054,0,0,0,1.312.035,23.371,23.371,0,0,0,3.129-.419,23.969,23.969,0,0,1,3.266-.434,9.518,9.518,0,0,1,2.057.123,36.3,36.3,0,0,1,3.646.858,22.379,22.379,0,0,0,4.52-.862c1.164-.38,3.693-1.255,4.593-2.115" transform="translate(-32.492 -90.518)" fill="#98a692"/>
      <path id="Path_22103" data-name="Path 22103" d="M72.257,6.168a40.277,40.277,0,1,0,40.025,40.276A40.2,40.2,0,0,0,72.257,6.168m0,81.25a40.975,40.975,0,1,1,40.719-40.975A40.893,40.893,0,0,1,72.257,87.419" transform="translate(-22.422 -3.069)" fill="#e3e7dd"/>
      <path id="Path_22104" data-name="Path 22104" d="M76.062,11.012a.349.349,0,1,1,.349-.345.35.35,0,0,1-.349.345Zm-2.431-.305a.347.347,0,1,1,.694-.028.346.346,0,0,1-.33.363h-.017a.349.349,0,0,1-.347-.335m4.5.384a.349.349,0,0,1-.324-.372.345.345,0,0,1,.368-.324.348.348,0,0,1-.023.7h-.021m-6.576-.224a.347.347,0,1,1,.379.315l-.035,0a.349.349,0,0,1-.345-.317m8.635.412a.347.347,0,1,1,.039,0l-.039,0m-10.7-.14a.347.347,0,0,1,.292-.4h0a.348.348,0,0,1,.1.689l-.053,0a.347.347,0,0,1-.342-.3m12.748.44a.348.348,0,1,1,.06,0l-.06,0m-14.8-.056a.347.347,0,1,1,.41.272l-.072.007a.346.346,0,0,1-.338-.279m16.823.468a.357.357,0,1,1,.079.007l-.079-.007m-18.852.028a.351.351,0,0,1,.248-.428h0a.347.347,0,0,1,.423.252.352.352,0,0,1-.25.426l-.088.012a.35.35,0,0,1-.336-.261m20.853.491a.353.353,0,0,1-.238-.433.348.348,0,1,1,.335.447l-.1-.014m-22.849.112a.346.346,0,1,1,.435.226l-.106.016a.344.344,0,0,1-.329-.242m24.82.517h0a.35.35,0,0,1-.215-.445.347.347,0,1,1,.326.463.334.334,0,0,1-.114-.019m-26.783.2a.351.351,0,0,1,.2-.451.347.347,0,0,1,.446.2.35.35,0,0,1-.2.452.4.4,0,0,1-.123.023.349.349,0,0,1-.326-.226m28.722.54a.349.349,0,0,1,.264-.647.353.353,0,0,1,.19.456.348.348,0,0,1-.321.217.334.334,0,0,1-.132-.026m-30.639.275a.349.349,0,0,1,.178-.459h0a.344.344,0,0,1,.458.177.35.35,0,0,1-.176.461.377.377,0,0,1-.141.03.35.35,0,0,1-.317-.209m32.534.566a.353.353,0,0,1-.165-.466.351.351,0,1,1,.165.466m-34.405.354a.348.348,0,0,1,.151-.468.344.344,0,0,1,.467.151.349.349,0,0,1-.151.47.348.348,0,0,1-.467-.153m36.253.589a.353.353,0,0,1-.141-.475.348.348,0,1,1,.61.333.345.345,0,0,1-.469.142m-38.074.431a.352.352,0,0,1,.125-.477h0a.348.348,0,0,1,.474.128.352.352,0,0,1-.127.477.362.362,0,0,1-.173.047.348.348,0,0,1-.3-.174M95.7,16.7a.349.349,0,1,1,.477-.117.346.346,0,0,1-.477.117m-41.631.507a.351.351,0,0,1,.1-.484.345.345,0,0,1,.479.1.351.351,0,0,1-.1.484.34.34,0,0,1-.19.058.349.349,0,0,1-.291-.158m43.366.628a.353.353,0,0,1-.09-.486.347.347,0,1,1,.287.547.356.356,0,0,1-.2-.06m-45.068.582a.353.353,0,0,1,.074-.489.346.346,0,0,1,.486.074.351.351,0,0,1-.074.489.341.341,0,0,1-.206.067.348.348,0,0,1-.28-.142m46.739.645a.349.349,0,0,1,.425-.554A.354.354,0,0,1,99.6,19a.348.348,0,0,1-.275.135.345.345,0,0,1-.213-.072m-48.374.654a.35.35,0,0,1,.049-.491.346.346,0,0,1,.488.049.351.351,0,0,1-.049.491.343.343,0,0,1-.219.079.336.336,0,0,1-.268-.128m49.977.661a.354.354,0,0,1-.037-.493.346.346,0,0,1,.49-.037.349.349,0,1,1-.453.531M49.167,21.1a.352.352,0,0,1,.021-.493.344.344,0,0,1,.49.023.348.348,0,0,1-.254.584.347.347,0,0,1-.257-.114m53.074.673a.349.349,0,0,1-.009-.494.347.347,0,1,1,.5.482.34.34,0,0,1-.25.107.346.346,0,0,1-.241-.1m-54.563.8a.35.35,0,0,1,0-.493.346.346,0,0,1,.49,0,.348.348,0,0,1-.243.6.338.338,0,0,1-.243-.1m56.019.682a.348.348,0,1,1,.506-.477.353.353,0,0,1-.016.493.349.349,0,0,1-.236.1.342.342,0,0,1-.254-.111m-57.43.866a.351.351,0,0,1-.03-.493.346.346,0,0,1,.49-.03.348.348,0,0,1-.231.61.343.343,0,0,1-.229-.086m58.8.689a.347.347,0,0,1,.042-.491.342.342,0,0,1,.488.042.349.349,0,0,1-.042.491.337.337,0,0,1-.224.081.345.345,0,0,1-.264-.123m-60.131.931a.349.349,0,1,1,.488-.056.343.343,0,0,1-.488.056m61.42.694a.346.346,0,1,1,.278.139.344.344,0,0,1-.278-.139m-62.657,1a.345.345,0,1,1,.2.065.332.332,0,0,1-.2-.065m63.858.7v0a.354.354,0,0,1,.092-.486.349.349,0,0,1,.389.58.354.354,0,0,1-.195.058.343.343,0,0,1-.286-.154M42.554,29.187a.35.35,0,0,1-.109-.482.345.345,0,0,1,.479-.109.352.352,0,0,1,.109.482h0a.345.345,0,0,1-.292.163.348.348,0,0,1-.185-.054m66.113.694a.351.351,0,0,1,.12-.48.346.346,0,0,1,.477.121.349.349,0,0,1-.3.529.347.347,0,0,1-.3-.17M41.5,31a.349.349,0,0,1-.134-.475.344.344,0,0,1,.472-.133.349.349,0,0,1-.169.654A.342.342,0,0,1,41.5,31m68.178.691a.348.348,0,0,1,.146-.472.341.341,0,0,1,.467.146.348.348,0,0,1-.143.47.353.353,0,0,1-.162.042.347.347,0,0,1-.308-.186m-69.134,1.18a.348.348,0,1,1,.153.035.369.369,0,0,1-.153-.035m70.048.682a.351.351,0,0,1,.171-.463.346.346,0,0,1,.461.17.351.351,0,0,1-.171.463.316.316,0,0,1-.144.033.348.348,0,0,1-.316-.2M39.7,34.792a.353.353,0,0,1-.185-.459.347.347,0,0,1,.455-.186.353.353,0,0,1,.186.458h0a.344.344,0,0,1-.453.186m71.713.668a.347.347,0,1,1,.451.2.343.343,0,0,1-.127.023.347.347,0,0,1-.324-.221M38.946,36.754a.346.346,0,0,1-.206-.447h0a.347.347,0,1,1,.652.237h0a.35.35,0,0,1-.326.23.37.37,0,0,1-.12-.021m73.173.662a.348.348,0,1,1,.439.219l-.109.019a.351.351,0,0,1-.33-.237M38.3,38.758a.352.352,0,0,1-.231-.438.347.347,0,1,1,.331.452l-.1-.014m74.42.645a.349.349,0,0,1,.24-.428.345.345,0,0,1,.428.242.351.351,0,0,1-.243.431l-.092.012a.345.345,0,0,1-.333-.256M37.773,40.786a.339.339,0,1,1,.083.011l-.083-.011m75.448.637a.347.347,0,1,1,.414.266l-.077.009a.347.347,0,0,1-.338-.275m-75.87,1.421a.354.354,0,1,1,.063,0l-.063,0m76.259.624a.347.347,0,1,1,.4.286l-.056,0a.346.346,0,0,1-.342-.291M37.04,44.919a.352.352,0,1,1,.046,0l-.046,0m76.848.607a.347.347,0,1,1,.384.31l-.039,0a.349.349,0,0,1-.345-.312m-77.049,1.48a.346.346,0,0,1-.317-.375h0a.348.348,0,1,1,.347.375h-.028m77.218.594a.348.348,0,1,1,.366.328H114.4a.345.345,0,0,1-.345-.328M36.751,49.1a.351.351,0,1,1,.007,0h-.007m77.364.658h0l0-.04,0-.044a.347.347,0,1,1,.694,0l0,.042,0,.042h0a.348.348,0,1,1-.7,0m-77.7,1.1a.347.347,0,1,1,.358.339H36.76a.348.348,0,0,1-.347-.339m77.977,1.345a.354.354,0,1,1,.019,0h-.019m-77.863.77a.348.348,0,1,1,.375.319h-.028a.348.348,0,0,1-.347-.319M114.2,54.3a.348.348,0,1,1,.037,0l-.037,0m-77.452.784a.347.347,0,1,1,.389.3l-.046,0a.347.347,0,0,1-.342-.3m77.158,1.294a.346.346,0,0,1-.287-.4h0a.348.348,0,1,1,.342.4l-.053,0m-76.821.8a.346.346,0,1,1,.4.277l-.065.007a.345.345,0,0,1-.34-.284M113.5,58.438a.353.353,0,0,1-.266-.417h0a.347.347,0,0,1,.412-.267.35.35,0,0,1-.074.691l-.074-.007m-75.965.806h0a.353.353,0,0,1,.255-.424.35.35,0,0,1,.167.679l-.084.01a.346.346,0,0,1-.335-.265m75.449,1.227a.342.342,0,1,1,.093.014l-.093-.014M38.1,61.285a.35.35,0,0,1,.231-.436.349.349,0,0,1,.2.668l-.1.014a.346.346,0,0,1-.333-.247m74.269,1.19a.342.342,0,1,1,.109.019l-.109-.019m-73.6.819a.35.35,0,0,1,.208-.447.343.343,0,0,1,.444.208.354.354,0,0,1-.206.449.375.375,0,0,1-.12.021.35.35,0,0,1-.326-.231m72.867,1.15a.349.349,0,1,1,.449-.2.345.345,0,0,1-.321.221.311.311,0,0,1-.127-.026m-72.095.815h0a.349.349,0,0,1,.183-.459.349.349,0,1,1,.136.67.35.35,0,0,1-.321-.212M110.8,66.371a.348.348,0,1,1,.461-.172.353.353,0,0,1-.317.205.345.345,0,0,1-.143-.033m-70.378.811a.348.348,0,1,1,.465.158.36.36,0,0,1-.155.035.348.348,0,0,1-.31-.193m69.439,1.068a.349.349,0,0,1-.146-.47.345.345,0,0,1,.467-.149.353.353,0,0,1,.148.472h0a.343.343,0,0,1-.305.186.335.335,0,0,1-.162-.039m-68.46.8a.351.351,0,0,1,.134-.477.347.347,0,0,1,.472.133.348.348,0,1,1-.606.345m67.421,1.022a.353.353,0,0,1-.12-.48.348.348,0,0,1,.476-.121.352.352,0,0,1,.121.479.347.347,0,0,1-.3.17.357.357,0,0,1-.178-.048m-66.344.793a.35.35,0,0,1,.109-.481.344.344,0,0,1,.479.107.351.351,0,0,1-.109.482.338.338,0,0,1-.185.053.347.347,0,0,1-.294-.161m65.211.971a.349.349,0,1,1,.481-.1.345.345,0,0,1-.287.154.352.352,0,0,1-.194-.058m-64.036.784a.347.347,0,1,1,.483.082.344.344,0,0,1-.483-.082m62.809.915a.351.351,0,0,1-.067-.489.345.345,0,0,1,.486-.067.349.349,0,0,1,.067.488.342.342,0,0,1-.278.138.336.336,0,0,1-.208-.07m-61.544.775v0a.35.35,0,0,1,.056-.491.344.344,0,0,1,.488.056.349.349,0,0,1-.273.566.341.341,0,0,1-.271-.133m60.231.857a.351.351,0,0,1-.042-.491.344.344,0,0,1,.488-.042.347.347,0,0,1-.222.614.344.344,0,0,1-.224-.081m-58.878.766a.351.351,0,0,1,.03-.493.348.348,0,0,1,.46.521.335.335,0,0,1-.229.088.35.35,0,0,1-.262-.117m57.48.794a.349.349,0,0,1-.016-.493.343.343,0,0,1,.49-.017.348.348,0,0,1-.238.6.34.34,0,0,1-.237-.093m-56.042.752a.351.351,0,0,1,0-.493.346.346,0,0,1,.49,0,.35.35,0,0,1,0,.493.347.347,0,0,1-.49,0m54.562.729a.351.351,0,0,1,.011-.494.348.348,0,0,1,.49.009.354.354,0,0,1-.012.5.349.349,0,0,1-.49-.011m-53.044.738a.353.353,0,0,1-.023-.493.348.348,0,1,1,.513.47.337.337,0,0,1-.257.114.349.349,0,0,1-.234-.091m51.49.661a.347.347,0,1,1,.264.121.344.344,0,0,1-.264-.121m-49.9.724v0a.353.353,0,0,1-.049-.492.347.347,0,0,1,.488-.048.352.352,0,0,1,.051.491.345.345,0,0,1-.271.13.375.375,0,0,1-.22-.079m48.27.591a.35.35,0,0,1,.062-.491.342.342,0,0,1,.486.063.348.348,0,1,1-.548.428m-46.6.7a.348.348,0,0,1,.41-.563.354.354,0,0,1,.074.489.346.346,0,0,1-.28.142.331.331,0,0,1-.2-.068m44.909.519a.349.349,0,0,1,.088-.484.345.345,0,0,1,.483.088.352.352,0,0,1-.088.486.359.359,0,0,1-.2.06.347.347,0,0,1-.287-.151m-43.176.687a.351.351,0,0,1-.1-.484.347.347,0,1,1,.581.381.341.341,0,0,1-.289.158.336.336,0,0,1-.19-.055m41.421.444a.35.35,0,0,1,.113-.479.345.345,0,0,1,.479.114.349.349,0,0,1-.116.479.338.338,0,0,1-.18.054.348.348,0,0,1-.3-.168m-39.626.666a.351.351,0,0,1-.127-.477.346.346,0,0,1,.474-.128.349.349,0,0,1-.174.652.328.328,0,0,1-.173-.047m37.812.368a.351.351,0,0,1,.141-.473.344.344,0,0,1,.47.14.349.349,0,0,1-.139.472.332.332,0,0,1-.167.044.35.35,0,0,1-.3-.184m-35.962.642a.348.348,0,0,1-.15-.468.344.344,0,0,1,.467-.154.352.352,0,0,1,.151.47.345.345,0,0,1-.31.19.328.328,0,0,1-.157-.039m34.1.291a.347.347,0,1,1,.463.168.342.342,0,0,1-.148.032.346.346,0,0,1-.315-.2m-32.191.622a.354.354,0,0,1-.178-.463.347.347,0,0,1,.458-.177.349.349,0,0,1-.141.668.361.361,0,0,1-.139-.028m30.281.212a.348.348,0,1,1,.643-.265.354.354,0,0,1-.19.456.378.378,0,0,1-.132.026.348.348,0,0,1-.321-.217m-28.331.591a.348.348,0,0,1-.2-.449.344.344,0,0,1,.447-.2.349.349,0,0,1-.123.675.331.331,0,0,1-.123-.024m26.374.138a.353.353,0,0,1,.212-.447.347.347,0,0,1,.442.214.353.353,0,0,1-.213.447l-.113.019a.35.35,0,0,1-.328-.233m-24.383.561h0a.345.345,0,1,1,.1.016l-.106-.016m22.389.058a.348.348,0,1,1,.43.237l-.1.014a.348.348,0,0,1-.335-.251m-20.365.529a.351.351,0,0,1-.25-.426.347.347,0,0,1,.423-.249.349.349,0,0,1-.085.687l-.088-.011m18.343-.019a.347.347,0,1,1,.416.263l-.079.007a.348.348,0,0,1-.337-.27m-16.293.5a.351.351,0,0,1-.271-.412.347.347,0,1,1,.34.419l-.069-.007m14.246-.1a.347.347,0,1,1,.4.284l-.06.005a.345.345,0,0,1-.34-.289m-12.171.459a.349.349,0,0,1,.1-.692.35.35,0,0,1-.049.7l-.051,0m10.1-.17a.347.347,0,1,1,.386.3l-.041,0a.348.348,0,0,1-.345-.307m-8.015.421a.338.338,0,1,1,.032,0l-.032,0m5.937-.244a.347.347,0,1,1,.37.326h-.025a.348.348,0,0,1-.345-.326m-3.837.384a.353.353,0,1,1,.012,0h-.012m1.751-.319a.347.347,0,1,1,.352.344h0a.347.347,0,0,1-.347-.344" transform="translate(-25.769 -6.388)" fill="#e3e7dd"/>
      <path id="Path_22105" data-name="Path 22105" d="M59.821,213.239a42.769,42.769,0,0,1-15.484-15.559q.862-.242,1.726-.472a41.112,41.112,0,0,0,16.5,15.56q-1.374.219-2.744.471m42.46,0q-1.369-.252-2.744-.471a41.112,41.112,0,0,0,16.5-15.56q.865.23,1.726.472a42.768,42.768,0,0,1-15.483,15.559m-38.523-.655a40.387,40.387,0,0,1-16.995-15.561q4.548-1.186,9.149-2.052c.132,0,.264-.007.4-.007a8.43,8.43,0,0,1,1.46.121c3.834.673,7.5,2.163,11.228,3.242a41.875,41.875,0,0,0,11.716,1.607,60.878,60.878,0,0,0,12.155-1.341c4.706-.96,9.486-1.466,14.179-2.5.681-.15,1.346-.34,2-.549q3.16.666,6.291,1.483a40.391,40.391,0,0,1-17,15.561q-1.111-.166-2.224-.31a.349.349,0,0,0-.3-.179.339.339,0,0,0-.132.027.332.332,0,0,0-.12.082,117.344,117.344,0,0,0-30.009.127.348.348,0,0,0,.117-.143.351.351,0,0,0-.178-.461.344.344,0,0,0-.14-.03.35.35,0,0,0-.318.207.354.354,0,0,0,.178.463l.019.007q-.739.1-1.476.21m33.962-1.336a.34.34,0,0,0-.149.034.349.349,0,0,0,.151.663.344.344,0,0,0,.148-.032.35.35,0,0,0-.15-.665m-34.252-.453a.344.344,0,0,0-.309.192.348.348,0,0,0,.15.468.328.328,0,0,0,.157.039.345.345,0,0,0,.31-.191.352.352,0,0,0-.151-.47.348.348,0,0,0-.158-.038m36.109-.5a.338.338,0,0,0-.165.043.349.349,0,0,0,.164.656.331.331,0,0,0,.167-.044.349.349,0,0,0,.139-.472.344.344,0,0,0-.3-.183m-37.945-.5a.343.343,0,0,0-.3.175.351.351,0,0,0,.127.477.327.327,0,0,0,.173.047.349.349,0,0,0,0-.7m39.749-.547a.35.35,0,0,0,0,.7.338.338,0,0,0,.18-.053.349.349,0,0,0-.18-.647m-41.529-.554a.345.345,0,0,0-.29.158.351.351,0,0,0,.1.484.336.336,0,0,0,.19.055.34.34,0,0,0,.289-.158.347.347,0,0,0-.1-.481.342.342,0,0,0-.191-.058m43.273-.592a.34.34,0,0,0-.2.063.349.349,0,0,0,.2.636.356.356,0,0,0,.2-.061.352.352,0,0,0,.088-.486.348.348,0,0,0-.287-.152m-44.988-.6a.349.349,0,0,0-.206.63.331.331,0,0,0,.2.068.346.346,0,0,0,.28-.142.354.354,0,0,0-.074-.489.342.342,0,0,0-.2-.067m46.672-.637a.345.345,0,0,0-.213.074.349.349,0,1,0,.486.063.339.339,0,0,0-.273-.137m-48.324-.647a.348.348,0,0,0-.269.127.352.352,0,0,0,.049.491v0a.37.37,0,0,0,.22.079.345.345,0,0,0,.271-.13.352.352,0,0,0-.051-.492.343.343,0,0,0-.219-.078m49.938-.679a.341.341,0,0,0-.226.085.349.349,0,0,0-.037.491.344.344,0,0,0,.264.121.348.348,0,0,0,0-.7M54.9,204.842a.345.345,0,0,0-.256.113.353.353,0,0,0,.023.494.348.348,0,0,0,.234.09.338.338,0,0,0,.257-.114.349.349,0,0,0-.023-.494.345.345,0,0,0-.233-.09m53.061-.722a.344.344,0,0,0-.239.1.351.351,0,0,0-.011.494.348.348,0,0,0,.49.012.348.348,0,0,0-.239-.6M53.4,203.388a.348.348,0,0,0-.245.1.352.352,0,0,0,0,.494.348.348,0,0,0,.49,0,.35.35,0,0,0,0-.493.342.342,0,0,0-.245-.1m56.03-.762a.34.34,0,0,0-.253.111.349.349,0,0,0,.016.493.341.341,0,0,0,.237.093.348.348,0,0,0,.238-.6.346.346,0,0,0-.238-.095m-57.457-.77a.343.343,0,0,0-.229.087.348.348,0,0,0,.231.61.335.335,0,0,0,.229-.088.348.348,0,0,0-.231-.609m58.842-.8a.345.345,0,0,0-.266.124.351.351,0,0,0,.042.491.344.344,0,0,0,.224.081.347.347,0,0,0,.222-.615.34.34,0,0,0-.222-.082m-60.455-.241a.342.342,0,0,0,.271.133.349.349,0,0,0,0-.7.342.342,0,0,0-.216.077.35.35,0,0,0-.056.491v0m61.753-1.4a.342.342,0,0,0-.276.138.351.351,0,0,0,.067.489.339.339,0,0,0,.208.07.342.342,0,0,0,.278-.138.349.349,0,0,0-.067-.488.346.346,0,0,0-.21-.071m-62.737-.839a.348.348,0,0,0-.282.551.344.344,0,0,0,.483.082.351.351,0,0,0,.081-.487.346.346,0,0,0-.282-.146m63.949-.873a.349.349,0,1,0,0,.7.344.344,0,0,0,.287-.154.35.35,0,0,0-.092-.484.342.342,0,0,0-.193-.06m-65.111-.867a.341.341,0,0,0-.186.055.348.348,0,0,0,.185.642.34.34,0,0,0,.185-.053.351.351,0,0,0,.109-.482.345.345,0,0,0-.293-.162" transform="translate(-31.215 -132.89)" fill="#98a692"/>
      <path id="Path_22106" data-name="Path 22106" d="M106.122,194.9A41.872,41.872,0,0,1,94.406,193.3c-3.733-1.078-7.394-2.569-11.228-3.242a8.4,8.4,0,0,0-1.46-.122c-.132,0-.265,0-.4.008q1.4-.263,2.8-.5c.954.2,1.9.437,2.832.7a22.38,22.38,0,0,0,4.52-.862,28.34,28.34,0,0,0,3.044-1.164q4.626-.408,9.267-.5c-.3,1.487-.876,2.859.909,3.832,1.479.806,4.009.75,5.656,1.1a19.365,19.365,0,0,0,3.89.582,3.989,3.989,0,0,0,2.567-.734c-.281-.621-1.013-.936-1.554-1.277a4.361,4.361,0,0,1,1.478-.794c-.13-.11-.29-.4-.492-.522a5.566,5.566,0,0,0,2.077.326c1.45,0,3.057-.3,4.279-.345a21.571,21.571,0,0,0,5-.468,15.727,15.727,0,0,1-4.064-.65q5.489.695,10.928,1.839c-.656.21-1.321.4-2,.55-4.693,1.036-9.474,1.543-14.179,2.5a60.859,60.859,0,0,1-12.155,1.34" transform="translate(-56.625 -127.859)" fill="#f1cb9d"/>
      <path id="Path_22107" data-name="Path 22107" d="M162.837,193.076a19.347,19.347,0,0,1-3.89-.582c-1.647-.349-4.177-.294-5.656-1.1-1.785-.973-1.209-2.345-.909-3.833q1.336-.026,2.673-.026a135.869,135.869,0,0,1,17.069,1.077,15.723,15.723,0,0,0,4.064.65,21.552,21.552,0,0,1-5,.468c-1.223.047-2.829.344-4.279.344a5.56,5.56,0,0,1-2.077-.326c.2.126.362.412.493.522a4.361,4.361,0,0,0-1.478.794c.541.341,1.273.655,1.554,1.277a3.988,3.988,0,0,1-2.567.734" transform="translate(-105.221 -127.801)" fill="#eb8622"/>
      <path id="Path_22108" data-name="Path 22108" d="M93.111,191.232c-.934-.265-1.879-.507-2.832-.7q5.176-.862,10.4-1.323a28.376,28.376,0,0,1-3.044,1.164,22.388,22.388,0,0,1-4.52.861" transform="translate(-62.78 -128.945)" fill="#eb8622"/>
      <path id="Path_22109" data-name="Path 22109" d="M66.355,217.249a41.116,41.116,0,0,1-16.5-15.561l.7-.185a40.4,40.4,0,0,0,17,15.562q-.6.089-1.192.184m36.971,0q-.6-.095-1.192-.184A40.391,40.391,0,0,0,119.128,201.5l.7.184a41.116,41.116,0,0,1-16.5,15.561" transform="translate(-35.005 -137.371)" fill="#98a692"/>
      <path id="Path_22110" data-name="Path 22110" d="M72.98,216.441l-.019-.007a.354.354,0,0,1-.178-.463.348.348,0,1,1,.636.284.345.345,0,0,1-.117.143l-.322.043m30.886-.1-.555-.07a.338.338,0,0,1,.12-.082.341.341,0,0,1,.132-.027.349.349,0,0,1,.3.179m1.6-.329a.349.349,0,1,1,.312-.5.35.35,0,0,1-.164.465.342.342,0,0,1-.148.032m-34.255-.452a.328.328,0,0,1-.158-.039.349.349,0,0,1-.15-.468.345.345,0,0,1,.467-.154.351.351,0,0,1,.151.47.345.345,0,0,1-.31.191m36.109-.5a.349.349,0,0,1-.164-.656.339.339,0,0,1,.165-.043.344.344,0,0,1,.3.183.349.349,0,0,1-.139.472.332.332,0,0,1-.167.044m-37.944-.5a.326.326,0,0,1-.173-.047.35.35,0,0,1-.127-.477.343.343,0,0,1,.3-.175.349.349,0,0,1,0,.7m39.748-.545a.352.352,0,1,1,.18-.053.338.338,0,0,1-.18.053M67.6,213.457a.334.334,0,0,1-.189-.055.351.351,0,0,1-.1-.484.347.347,0,1,1,.581.381.341.341,0,0,1-.289.158m43.274-.591a.349.349,0,0,1-.2-.635.339.339,0,0,1,.2-.063.348.348,0,0,1,.287.152.352.352,0,0,1-.088.487.358.358,0,0,1-.2.06m-44.992-.6a.332.332,0,0,1-.2-.068.349.349,0,0,1,.206-.63.34.34,0,0,1,.2.067.354.354,0,0,1,.074.489.346.346,0,0,1-.28.142m46.674-.635a.35.35,0,0,1-.213-.626.344.344,0,0,1,.213-.074.339.339,0,0,1,.273.137.348.348,0,0,1-.273.563m-48.325-.647a.375.375,0,0,1-.22-.079v0a.353.353,0,0,1-.049-.492.348.348,0,0,1,.269-.127.343.343,0,0,1,.219.078.352.352,0,0,1,.051.491.345.345,0,0,1-.271.13m49.94-.682a.344.344,0,0,1-.264-.121.349.349,0,0,1,.037-.491.341.341,0,0,1,.226-.085.344.344,0,0,1,.262.12.348.348,0,0,1-.261.577m-51.52-.692a.349.349,0,0,1-.234-.091.353.353,0,0,1-.023-.493.348.348,0,0,1,.49-.023.349.349,0,0,1,.023.493.337.337,0,0,1-.257.114m53.063-.722a.345.345,0,0,1-.252-.107.351.351,0,0,1,.011-.494.343.343,0,0,1,.239-.1.348.348,0,0,1,0,.7m-54.566-.733a.341.341,0,0,1-.248-.1.349.349,0,0,1,.248-.595.342.342,0,0,1,.245.1.35.35,0,0,1,0,.493.337.337,0,0,1-.243.1m56.031-.761a.341.341,0,0,1-.237-.093.349.349,0,0,1-.016-.493.34.34,0,0,1,.253-.111.347.347,0,0,1,.238.095.348.348,0,0,1-.238.6m-57.455-.77a.348.348,0,0,1-.231-.61.346.346,0,0,1,.49.031.349.349,0,0,1-.03.491.335.335,0,0,1-.229.089m58.841-.8a.344.344,0,0,1-.224-.081.351.351,0,0,1-.042-.491.346.346,0,0,1,.266-.124.34.34,0,0,1,.222.082.347.347,0,0,1-.222.615m-60.184-.805a.341.341,0,0,1-.271-.133v0a.35.35,0,0,1,.056-.491.341.341,0,0,1,.216-.077.349.349,0,0,1,0,.7m61.482-.838a.336.336,0,0,1-.208-.07.351.351,0,0,1-.067-.489.341.341,0,0,1,.276-.139.345.345,0,0,1,.21.071.349.349,0,0,1,.067.488.342.342,0,0,1-.278.138m-62.735-.838a.343.343,0,0,1-.282-.147.347.347,0,1,1,.483.082.341.341,0,0,1-.2.065m63.948-.873a.349.349,0,0,1,0-.7.344.344,0,0,1,.193.06.35.35,0,0,1,.092.484.344.344,0,0,1-.287.153M55.96,201.6a.349.349,0,1,1,.294-.535.352.352,0,0,1-.109.482.338.338,0,0,1-.185.053" transform="translate(-38.963 -136.957)" fill="#98a692"/>
      <path id="Path_22111" data-name="Path 22111" d="M104.607,198.733a117.409,117.409,0,0,0-74.061,0L24.726,181a135.858,135.858,0,0,1,85.7,0q-2.91,8.869-5.82,17.737" transform="translate(-17.741 -118.57)" fill="#a3a436"/>
      <path id="Path_22112" data-name="Path 22112" d="M114.624,73.061a6.457,6.457,0,1,1-6.457-6.5,6.477,6.477,0,0,1,6.457,6.5" transform="translate(-70.634 -44.924)" fill="#e3e7dd"/>
      <path id="Path_22113" data-name="Path 22113" d="M78.781,57.963a1,1,0,1,1-1-1.008,1.006,1.006,0,0,1,1,1.008" transform="translate(-53.503 -38.341)" fill="#e3e7dd"/>
      <path id="Path_22114" data-name="Path 22114" d="M242.132,57.963a1,1,0,1,1-1-1.008,1.006,1.006,0,0,1,1,1.008" transform="translate(-165.735 -38.341)" fill="#e3e7dd"/>
      <path id="Path_22115" data-name="Path 22115" d="M54.858,213.5l-.688.259-.3-.8,1.664-.628,1.845,4.954-.977.369Z" transform="translate(-37.767 -144.788)" fill="#fff"/>
      <path id="Path_22116" data-name="Path 22116" d="M64.573,211.753a5.313,5.313,0,0,1-.239-1.071,2.479,2.479,0,0,1,.059-.918,1.582,1.582,0,0,1,.434-.727,2.621,2.621,0,0,1,1.891-.624,1.576,1.576,0,0,1,.774.329,2.406,2.406,0,0,1,.584.706,5.5,5.5,0,0,1,.433,1.007,5.606,5.606,0,0,1,.246,1.08,2.38,2.38,0,0,1-.055.917,1.57,1.57,0,0,1-.432.719,2.3,2.3,0,0,1-.891.5,2.274,2.274,0,0,1-1,.127,1.544,1.544,0,0,1-.775-.321,2.412,2.412,0,0,1-.587-.705,5.416,5.416,0,0,1-.44-1.016m2.93-.966q-.112-.345-.238-.645a2.106,2.106,0,0,0-.3-.517.883.883,0,0,0-.412-.293.925.925,0,0,0-.575.034.912.912,0,0,0-.476.312.891.891,0,0,0-.16.482,2.112,2.112,0,0,0,.06.6q.075.317.187.662t.246.667a1.971,1.971,0,0,0,.3.513.864.864,0,0,0,.408.279.927.927,0,0,0,.566-.036.946.946,0,0,0,.484-.311.874.874,0,0,0,.165-.468,2,2,0,0,0-.059-.593q-.077-.325-.194-.683" transform="translate(-44.943 -142.094)" fill="#fff"/>
      <path id="Path_22117" data-name="Path 22117" d="M80.114,207.034a5.281,5.281,0,0,1-.18-1.082,2.472,2.472,0,0,1,.109-.913,1.576,1.576,0,0,1,.473-.7,2.624,2.624,0,0,1,1.922-.518,1.577,1.577,0,0,1,.755.372,2.4,2.4,0,0,1,.544.738,5.489,5.489,0,0,1,.378,1.029,5.619,5.619,0,0,1,.186,1.092,2.383,2.383,0,0,1-.105.913,1.568,1.568,0,0,1-.471.694,2.671,2.671,0,0,1-1.922.517,1.547,1.547,0,0,1-.757-.363,2.414,2.414,0,0,1-.548-.737,5.4,5.4,0,0,1-.384-1.039m2.978-.8q-.093-.351-.2-.658a2.13,2.13,0,0,0-.274-.533.882.882,0,0,0-.4-.316,1.111,1.111,0,0,0-1.067.287.889.889,0,0,0-.186.473,2.12,2.12,0,0,0,.027.6q.058.321.151.671t.209.679a1.974,1.974,0,0,0,.273.529.861.861,0,0,0,.392.3.924.924,0,0,0,.567,0,.945.945,0,0,0,.5-.284.867.867,0,0,0,.19-.458,2,2,0,0,0-.026-.6q-.059-.328-.156-.693" transform="translate(-55.67 -138.936)" fill="#fff"/>
      <path id="Path_22118" data-name="Path 22118" d="M94.88,200.769a1.155,1.155,0,0,1,.164-.955,1.259,1.259,0,0,1,.795-.481,1.241,1.241,0,0,1,.91.136,1.151,1.151,0,0,1,.518.816,1.168,1.168,0,0,1-.163.958,1.35,1.35,0,0,1-1.7.345,1.161,1.161,0,0,1-.518-.82m1.071-.834a.4.4,0,0,0-.291.2.732.732,0,0,0-.023.479.745.745,0,0,0,.2.432.387.387,0,0,0,.347.08.406.406,0,0,0,.289-.209.718.718,0,0,0,.03-.48.7.7,0,0,0-.212-.431.411.411,0,0,0-.345-.073m2.519-1.081,1-.2-1.947,5.791-1,.2Zm.27,4.147a1.156,1.156,0,0,1,.164-.954,1.258,1.258,0,0,1,.795-.481,1.235,1.235,0,0,1,.9.137,1.152,1.152,0,0,1,.518.817,1.164,1.164,0,0,1-.162.962,1.235,1.235,0,0,1-.779.478,1.251,1.251,0,0,1-.918-.134,1.16,1.16,0,0,1-.519-.824m1.071-.834a.406.406,0,0,0-.294.206.945.945,0,0,0,.181.9.4.4,0,0,0,.35.076.4.4,0,0,0,.286-.2.946.946,0,0,0-.181-.9.4.4,0,0,0-.343-.077" transform="translate(-65.918 -135.417)" fill="#fff"/>
      <path id="Path_22119" data-name="Path 22119" d="M123.024,198.453a2.841,2.841,0,0,1,.086-1.108,2.518,2.518,0,0,1,.481-.911,2.625,2.625,0,0,1,.8-.647,2.91,2.91,0,0,1,1.051-.312,2.808,2.808,0,0,1,1.512.226,2.416,2.416,0,0,1,1.084,1l-.842.343a1.6,1.6,0,0,0-.474-.465,1.677,1.677,0,0,0-.572-.226,2,2,0,0,0-.6-.026,1.685,1.685,0,0,0-.851.325,1.567,1.567,0,0,0-.526.708,2.079,2.079,0,0,0-.108.977,2.052,2.052,0,0,0,.314.927,1.593,1.593,0,0,0,.664.577,1.664,1.664,0,0,0,.9.137,2.061,2.061,0,0,0,.6-.161,1.58,1.58,0,0,0,.53-.381,1.884,1.884,0,0,0,.381-.65l.878.14a2.517,2.517,0,0,1-.851,1.336,2.791,2.791,0,0,1-1.461.574,2.913,2.913,0,0,1-1.093-.078,2.582,2.582,0,0,1-.924-.462,2.537,2.537,0,0,1-.664-.79,2.816,2.816,0,0,1-.32-1.056" transform="translate(-85.265 -133.226)" fill="#fff"/>
      <path id="Path_22120" data-name="Path 22120" d="M144.8,199.423a2.912,2.912,0,0,1-1.082-.148,2.645,2.645,0,0,1-.9-.515,2.566,2.566,0,0,1-.624-.827,2.9,2.9,0,0,1-.1-2.178,2.608,2.608,0,0,1,1.4-1.477,3.047,3.047,0,0,1,2.15-.1,2.675,2.675,0,0,1,.9.519,2.6,2.6,0,0,1,.628.827,2.709,2.709,0,0,1,.261,1.078,2.738,2.738,0,0,1-.164,1.1,2.552,2.552,0,0,1-.553.88,2.708,2.708,0,0,1-.852.595,2.91,2.91,0,0,1-1.068.244m-.031-.868a1.623,1.623,0,0,0,1.432-.934,2.2,2.2,0,0,0-.085-1.918,1.62,1.62,0,0,0-1.509-.8,1.679,1.679,0,0,0-.874.27,1.61,1.61,0,0,0-.57.665,2.025,2.025,0,0,0-.174.968,2.051,2.051,0,0,0,.259.949,1.57,1.57,0,0,0,.626.615,1.7,1.7,0,0,0,.894.187" transform="translate(-98.268 -132.25)" fill="#fff"/>
      <path id="Path_22121" data-name="Path 22121" d="M163.177,199.086l-1.043-.027.134-5.289,1.189.031,1.623,4,1.823-3.915,1.19.03-.134,5.289-1.043-.026.087-3.415-1.546,3.378-.819-.021-1.373-3.453Z" transform="translate(-112.149 -132.073)" fill="#fff"/>
      <path id="Path_22122" data-name="Path 22122" d="M188.321,196.585a1.675,1.675,0,0,1-.16.573,1.5,1.5,0,0,1-.386.5,1.666,1.666,0,0,1-.63.326,2.454,2.454,0,0,1-.9.063l-1.177-.107-.18,2.01-1.039-.094.471-5.269,2.217.2a2.348,2.348,0,0,1,1.062.32,1.523,1.523,0,0,1,.585.653,1.622,1.622,0,0,1,.14.829m-2.033.6a1.2,1.2,0,0,0,.516-.048.634.634,0,0,0,.321-.244.867.867,0,0,0,.133-.409.745.745,0,0,0-.168-.592.981.981,0,0,0-.663-.265l-1.147-.1-.14,1.558Z" transform="translate(-127.067 -132.629)" fill="#fff"/>
      <path id="Path_22123" data-name="Path 22123" d="M201.167,196.335l-.613,4.393,2.38.337-.118.845-3.413-.483.732-5.239Z" transform="translate(-137.754 -133.73)" fill="#fff"/>
      <path id="Path_22124" data-name="Path 22124" d="M216.873,199.748l-2.71-.519-.25,1.321,2.026.389-.153.809-2.026-.389-.263,1.388,2.71.52-.159.839-3.734-.716.984-5.2,3.735.715Z" transform="translate(-146.626 -135.102)" fill="#fff"/>
      <path id="Path_22125" data-name="Path 22125" d="M229.622,201.031l4.254,1.054-.2.829-1.621-.4L231,206.82l-1.013-.251,1.053-4.308-1.621-.4Z" transform="translate(-158.378 -137.047)" fill="#fff"/>
      <path id="Path_22126" data-name="Path 22126" d="M246.758,207.177l-2.64-.806-.388,1.287,1.974.6-.238.788-1.974-.6-.408,1.352,2.64.806-.246.817-3.638-1.11,1.526-5.063L247,206.36Z" transform="translate(-166.912 -139.937)" fill="#fff"/>
      <path id="Path_22127" data-name="Path 22127" d="M259.679,210.592a3.252,3.252,0,0,1,1.3.83,2.435,2.435,0,0,1,.615,1.214,2.7,2.7,0,0,1-.148,1.443,2.635,2.635,0,0,1-.81,1.182,2.4,2.4,0,0,1-1.246.514,3.268,3.268,0,0,1-1.522-.216l-1.893-.7,1.813-4.966Zm-1.549,4.153a1.811,1.811,0,0,0,1.424.023,1.757,1.757,0,0,0,.889-1.06,1.666,1.666,0,0,0-1.086-2.326l-.885-.327-1.228,3.363Z" transform="translate(-176.622 -143.117)" fill="#fff"/>
    </g>
  </g>
</svg>
