<svg xmlns="http://www.w3.org/2000/svg" width="49" height="49" viewBox="0 0 49 49">
  <g id="image-placeholder" transform="translate(-974 -10003)">
    <rect id="Rectangle_2906" data-name="Rectangle 2906" width="49" height="49" rx="5" transform="translate(974 10003)" fill="#c7d0bb"/>
    <g id="vuesax_bold_gallery" data-name="vuesax/bold/gallery" transform="translate(622 9763)">
      <g id="gallery" transform="translate(364 252)">
        <path id="Vector" d="M.552,2.062l-.021.021A6.445,6.445,0,0,1,0,0,6.4,6.4,0,0,0,.552,2.062Z" transform="translate(2.135 17.74)" fill="#577434"/>
        <path id="Vector-2" data-name="Vector" d="M4.958,2.479A2.479,2.479,0,1,1,2.479,0,2.479,2.479,0,0,1,4.958,2.479Z" transform="translate(6.896 5.854)" fill="#577434"/>
        <path id="Vector-3" data-name="Vector" d="M14.781,0H6.052C2.26,0,0,2.26,0,6.052v8.729A7,7,0,0,0,.583,17.74c.9,1.979,2.813,3.094,5.469,3.094h8.729c3.792,0,6.052-2.26,6.052-6.052V6.052C20.833,2.26,18.573,0,14.781,0Zm4.354,10.938a2.322,2.322,0,0,0-2.937,0l-4.333,3.719a2.322,2.322,0,0,1-2.937,0l-.354-.292a2.313,2.313,0,0,0-2.75-.146l-3.9,2.615a5.555,5.555,0,0,1-.365-2.052V6.052c0-2.937,1.552-4.49,4.49-4.49h8.729c2.938,0,4.49,1.552,4.49,4.49v5Z" transform="translate(2.083 2.083)" fill="#577434"/>
        <path id="Vector-4" data-name="Vector" d="M0,0H25V25H0Z" fill="none" opacity="0"/>
      </g>
    </g>
  </g>
</svg>
