<svg id="vuesax_bold_logout" data-name="vuesax/bold/logout" xmlns="http://www.w3.org/2000/svg" width="20" height="20" viewBox="0 0 20 20">
  <g id="logout">
    <path id="Vector" d="M4.325,0H6.492a4.027,4.027,0,0,1,4.333,4.333V7.708H5.617a.625.625,0,0,0,0,1.25h5.208v3.375a4.027,4.027,0,0,1-4.333,4.333H4.333A4.027,4.027,0,0,1,0,12.333v-8A4.016,4.016,0,0,1,4.325,0Z" transform="translate(1.675 1.667)" fill="#e93e3e"/>
    <path id="Vector-2" data-name="Vector" d="M3.7,2.79,1.975,1.065A.618.618,0,0,1,1.792.623.6.6,0,0,1,1.975.181a.629.629,0,0,1,.883,0L5.65,2.973a.629.629,0,0,1,0,.883L2.858,6.648a.625.625,0,0,1-.883-.883L3.7,4.04H0V2.79Z" transform="translate(12.5 6.585)" fill="#e93e3e"/>
    <path id="Vector-3" data-name="Vector" d="M0,20H20V0H0Z" transform="translate(0 0)" fill="none" opacity="0"/>
  </g>
</svg>
