<svg xmlns="http://www.w3.org/2000/svg" width="20" height="20" viewBox="0 0 20 20">
  <g id="vuesax_bulk_edit-2" data-name="vuesax/bulk/edit-2" transform="translate(-684 -252)">
    <g id="edit-2" transform="translate(684 252)">
      <path id="Vector" d="M15.625,1.25h-15A.63.63,0,0,1,0,.625.63.63,0,0,1,.625,0h15a.63.63,0,0,1,.625.625A.63.63,0,0,1,15.625,1.25Z" transform="translate(1.875 17.083)" fill="#577434" opacity="0.4"/>
      <path id="Vector-2" data-name="Vector" d="M5.963,1.228C4.346-.388,2.763-.43,1.1,1.228L.1,2.237a.347.347,0,0,0-.083.333A6.774,6.774,0,0,0,4.621,7.178a.418.418,0,0,0,.1.017.334.334,0,0,0,.242-.1l1-1.008A3.444,3.444,0,0,0,7.188,3.678,3.431,3.431,0,0,0,5.963,1.228Z" transform="translate(9.887 1.672)" fill="#577434" opacity="0.4"/>
      <path id="Vector-3" data-name="Vector" d="M10.1,4.567c-.242-.117-.475-.233-.7-.367-.183-.108-.358-.225-.533-.35A5.032,5.032,0,0,1,8.4,3.492a1.017,1.017,0,0,1-.142-.125A7.048,7.048,0,0,1,7.4,2.5a1.015,1.015,0,0,1-.125-.15,4.847,4.847,0,0,1-.35-.458A4.576,4.576,0,0,1,6.6,1.4c-.133-.225-.25-.45-.367-.683C6.113.467,6.022.225,5.938,0L.705,5.233a1,1,0,0,0-.233.458L.022,8.883a1.708,1.708,0,0,0,.425,1.458,1.659,1.659,0,0,0,1.167.45,1.822,1.822,0,0,0,.3-.025l3.2-.45a.928.928,0,0,0,.458-.233L10.805,4.85C10.572,4.767,10.347,4.675,10.1,4.567Z" transform="translate(2.912 5.042)" fill="#577434"/>
      <path id="Vector-4" data-name="Vector" d="M0,0H20V20H0Z" fill="none" opacity="0"/>
    </g>
  </g>
</svg>
