<svg xmlns="http://www.w3.org/2000/svg" width="16" height="16" viewBox="0 0 16 16">
  <g id="vuesax_bold_grammerly" data-name="vuesax/bold/grammerly" transform="translate(-748)">
    <g id="grammerly" transform="translate(748)">
      <path id="Vector" d="M0,0H16V16H0Z" transform="translate(16 16) rotate(180)" fill="none" opacity="0"/>
      <path id="Vector-2" data-name="Vector" d="M11.4,1.955a6.681,6.681,0,1,0-9.313,9.58,6.758,6.758,0,0,0,9.173,0A6.679,6.679,0,0,0,11.4,1.955ZM9.583,9.748a4.276,4.276,0,0,1-5.813,0,.5.5,0,1,1,.687-.727,3.274,3.274,0,0,0,4.44,0,.5.5,0,0,1,.707.02A.5.5,0,0,1,9.583,9.748Z" transform="translate(1.337 1.352)" fill="#00a733"/>
    </g>
  </g>
</svg>
